# xmcd
#
# Track frame offsets:
#	150
#	12168
#	25205
#	37855
#	52445
#	66559
#	81278
#	95905
#	109955
#	123346
#	149486
#	161321
#	176725
#	190368
#	203707
#	215700
#	229499
#	240277
#	254669
#	270059
#
# Disc length: 3808
#
# Revision: 1
# Processed by: cddbd v1.5.1PL0 Copyright (c) Steve Scherf et al.
# Submitted via: CDex 1.51
# Normalized: r0:TDELIM( - )
#
DISCID=2b0ede14
DTITLE=Various Artist - Swingtime (09/10)
DYEAR=2003
DGENRE=Jazz
TTITLE0=Earl "Fatha" Hines - Grand terrace shuffle - 19390712
TTITLE1=Coleman Hawkins - Wrap you troubles in dreams - 19440501
TTITLE2=Don Byas - Please don't talk about me when I'm gone - 19470113
TTITLE3=Ben Webster - Honeysuckle rose - 19440417
TTITLE4=Earl "Fatha" Hines - Rosetta - 19391021
TTITLE5=Louis Armstrong - Rockin' chair - 19390210
TTITLE6=Charly Christian - Gone with "what" wind - 19400207
TTITLE7=Coleman Hawkins - April in Paris - 19471211
TTITLE8=Charlie Shavers - Dizzy's dilemma - 1945
TTITLE9=Benny Goodman - Pick-a rip (parts 1 and 2) - 19381229
TTITLE10=John Kirby - Blue skies - 19390810
TTITLE11=Erroll Garner - How high the moon - 19500628
TTITLE12=Lester Young - Jammin' with Lester - 1946
TTITLE13=Duke Ellington - Conga brava - 19400315
TTITLE14=Artie Shaw - Diga diga doo - 19391111
TTITLE15=Django Reinhardt - Blue light blues - 19380307
TTITLE16=Don Byas - I'm beginning to see the light - 19470106
TTITLE17=Roy Eldridge - Fish market - 19441013
TTITLE18=Lionel Hampton - Ring dem bells - 19380118
TTITLE19=Glenn Miller - King Porter stomp - 19380927
EXTD=YEAR: 2003
EXTT0=
EXTT1=
EXTT2=
EXTT3=
EXTT4=
EXTT5=
EXTT6=
EXTT7=
EXTT8=
EXTT9=
EXTT10=
EXTT11=
EXTT12=
EXTT13=
EXTT14=
EXTT15=
EXTT16=
EXTT17=
EXTT18=
EXTT19=
PLAYORDER=
